<?xml version="1.0" encoding="UTF-8"?>
<svg version="1.1" xmlns="http://www.w3.org/2000/svg" width="577" height="433">
<path d="M0 0 C2.6853234 1.26341523 5.20012945 2.70187747 7.75390625 4.21484375 C8.88441406 4.87355469 10.01492188 5.53226562 11.1796875 6.2109375 C13.21144006 7.39958538 15.23987399 8.5932594 17.26367188 9.79541016 C23.63824703 13.58184259 30.0682814 17.26783395 36.51098633 20.93670654 C48.99780341 28.04760694 61.43799504 35.23334348 73.82958984 42.50927734 C76.86362679 44.27883671 79.91091616 46.02378024 82.9609375 47.765625 C84.95447767 48.91527687 86.94796908 50.06501329 88.94140625 51.21484375 C89.85647949 51.73071045 90.77155273 52.24657715 91.71435547 52.77807617 C98.54481991 56.74346492 103.14215305 60.49758867 105.75390625 68.21484375 C106.00838184 70.65617275 106.00838184 70.65617275 106.01460266 73.25547791 C106.02168747 74.24655045 106.02877228 75.23762299 106.03607178 76.25872803 C106.03359436 77.33471252 106.03111694 78.41069702 106.02856445 79.51928711 C106.03367538 80.66130081 106.03878632 81.80331451 106.04405212 82.97993469 C106.057952 86.75490561 106.05699108 90.52969404 106.0546875 94.3046875 C106.05857407 96.92875741 106.06290866 99.55282668 106.06767273 102.17689514 C106.07588015 107.67710997 106.07498129 113.17727341 106.06958008 118.67749023 C106.06353994 125.02764984 106.07585448 131.3775879 106.09715015 137.72770971 C106.11691124 143.84609662 106.11993745 149.96438016 106.11641502 156.0827961 C106.1169286 158.6819263 106.1221731 161.28106001 106.13222694 163.88017082 C106.14455832 167.51395634 106.13781897 171.1472286 106.1262207 174.78100586 C106.13386444 175.85496613 106.14150818 176.92892639 106.14938354 178.03543091 C106.09999837 185.0330587 105.17994451 189.4386981 100.453125 194.84765625 C97.61786086 197.33415418 94.82307245 199.18853101 91.56640625 201.08984375 C90.93404053 201.46149658 90.3016748 201.83314941 89.65014648 202.21606445 C87.35697043 203.55879517 85.05598835 204.88744071 82.75390625 206.21484375 C81.81224609 206.75963379 80.87058594 207.30442383 79.90039062 207.86572266 C74.44018253 211.02419758 68.97532096 214.17449435 63.5078125 217.3203125 C57.24258674 220.92815979 50.99531174 224.56598217 44.75390625 228.21484375 C36.08157612 233.28300392 27.39294069 238.32205351 18.69140625 243.33984375 C17.60279297 243.96761719 16.51417969 244.59539062 15.39257812 245.2421875 C13.37569237 246.40446065 11.35428653 247.55893888 9.32763672 248.70410156 C6.83488577 250.11019503 6.83488577 250.11019503 4.94970703 251.53027344 C-0.76996032 255.59767166 -7.59922402 255.18483079 -14.24609375 254.21484375 C-18.65248302 252.61282933 -22.46503791 250.37961889 -26.43359375 247.90234375 C-27.51455322 247.26224365 -28.5955127 246.62214355 -29.70922852 245.96264648 C-31.8909339 244.66865503 -34.06553697 243.3626045 -36.23242188 242.04394531 C-39.60805676 239.9951559 -43.02048986 238.02010721 -46.44726562 236.05859375 C-48.72483322 234.7537166 -50.9940561 233.43528846 -53.26171875 232.11328125 C-58.0366963 229.33274217 -62.82379836 226.57350325 -67.61206055 223.81591797 C-72.04314281 221.26311953 -76.47105087 218.7048409 -80.89892578 216.14648438 C-83.13833681 214.85412697 -85.3789066 213.5637755 -87.62060547 212.27539062 C-90.87349535 210.40572786 -94.12259786 208.52962792 -97.37109375 206.65234375 C-98.83615356 205.81352661 -98.83615356 205.81352661 -100.33081055 204.95776367 C-117.12490931 195.22360452 -117.12490931 195.22360452 -120.24609375 187.21484375 C-120.82090322 183.31232474 -120.79304304 179.45475793 -120.76367188 175.515625 C-120.77068115 174.3554184 -120.77769043 173.19521179 -120.78491211 171.99984741 C-120.80247688 168.17543405 -120.79087378 164.35176428 -120.77734375 160.52734375 C-120.78003908 157.86367884 -120.78391606 155.20003627 -120.78894043 152.53637695 C-120.79620461 146.95808906 -120.7866617 141.38001343 -120.76757812 135.80175781 C-120.74581147 129.3651481 -120.75286373 122.92904529 -120.77488375 116.49244785 C-120.79307308 110.95249646 -120.79557893 105.41269711 -120.78512907 99.87272549 C-120.77891338 96.5698879 -120.77959027 93.26733893 -120.79127502 89.96450806 C-120.80144795 86.28067899 -120.78592694 82.59781948 -120.76367188 78.9140625 C-120.7717688 77.82813812 -120.77986572 76.74221375 -120.78820801 75.62338257 C-120.70668638 68.32930755 -119.55987068 63.9392387 -114.61865234 58.38574219 C-110.29496093 54.83965512 -105.80929497 52.07507452 -100.87109375 49.46484375 C-99.26462877 48.59428378 -97.65918255 47.72184161 -96.0546875 46.84765625 C-95.2488623 46.40969727 -94.44303711 45.97173828 -93.61279297 45.52050781 C-90.00969532 43.53274567 -86.47048428 41.4425298 -82.93359375 39.33984375 C-75.96792195 35.20937641 -68.94848177 31.18168979 -61.90722656 27.18164062 C-56.54081435 24.12342521 -51.20203877 21.02211215 -45.8828125 17.8828125 C-45.24648895 17.50771042 -44.61016541 17.13260834 -43.95455933 16.74613953 C-40.81526956 14.89503596 -37.67858421 13.03974748 -34.54589844 11.17749023 C-9.8527151 -3.4441665 -9.8527151 -3.4441665 0 0 Z M-55.24609375 100.21484375 C-55.32057491 105.49842286 -55.3748517 110.78169238 -55.41088867 116.06567383 C-55.42592091 117.86097542 -55.44635232 119.65624063 -55.47241211 121.45141602 C-55.50904161 124.04061901 -55.52587585 126.62933403 -55.5390625 129.21875 C-55.55454636 130.01382462 -55.57003021 130.80889923 -55.58598328 131.62806702 C-55.58828054 139.33580276 -53.14109812 144.9990077 -47.8984375 150.703125 C-42.92318645 155.25495042 -37.3946891 155.71739297 -30.953125 155.48828125 C-23.45082965 154.73047364 -19.52814399 152.08425217 -14.69140625 146.34765625 C-9.37226284 138.4983257 -9.66116728 127.30278806 -11.24609375 118.21484375 C-13.2482929 113.12918969 -16.69483443 109.31097137 -20.24609375 105.21484375 C-21.53515625 102.875 -21.53515625 102.875 -22.24609375 101.21484375 C-22.57609375 101.21484375 -22.90609375 101.21484375 -23.24609375 101.21484375 C-23.25543945 102.31473633 -23.26478516 103.41462891 -23.27441406 104.54785156 C-23.31432312 108.63338541 -23.38008379 112.71816694 -23.45361328 116.80322266 C-23.48181772 118.57037686 -23.50303493 120.33765709 -23.51708984 122.10498047 C-23.53852733 124.64746597 -23.58517878 127.18843713 -23.63671875 129.73046875 C-23.63856171 130.91349579 -23.63856171 130.91349579 -23.64044189 132.12042236 C-23.73628224 135.71937909 -23.92131286 137.79589464 -26.15917969 140.68261719 C-29.69199788 143.27643644 -31.85774679 143.55902783 -36.24609375 143.21484375 C-39.26360342 141.91182821 -40.8120405 141.03418342 -42.36083984 138.1105957 C-43.48782981 134.42410151 -43.60049753 130.89104549 -43.66015625 127.0703125 C-43.6795224 126.30052567 -43.69888855 125.53073883 -43.71884155 124.73762512 C-43.77834998 122.29264204 -43.8249067 119.84761113 -43.87109375 117.40234375 C-43.90930006 115.73891241 -43.94835332 114.07550028 -43.98828125 112.41210938 C-44.08402758 108.34651134 -44.16816384 104.28082074 -44.24609375 100.21484375 C-47.87609375 100.21484375 -51.50609375 100.21484375 -55.24609375 100.21484375 Z M-10.24609375 100.21484375 C-8.94365259 103.7341564 -7.40418494 106.73074121 -5.33203125 109.85546875 C-4.74309082 110.74991699 -4.15415039 111.64436523 -3.54736328 112.56591797 C-2.91169434 113.52256348 -2.27602539 114.47920898 -1.62109375 115.46484375 C-0.2710718 117.51362245 1.0778455 119.56312939 2.42578125 121.61328125 C3.13025391 122.68416992 3.83472656 123.75505859 4.56054688 124.85839844 C9.01976002 131.66317169 13.37002456 138.53905127 17.73681641 145.40332031 C18.37925293 146.41104492 19.02168945 147.41876953 19.68359375 148.45703125 C20.25319824 149.35276855 20.82280273 150.24850586 21.40966797 151.17138672 C22.5951841 153.1235012 22.5951841 153.1235012 23.75390625 154.21484375 C25.94030078 154.28743321 28.12891014 154.29858158 30.31640625 154.27734375 C31.51394531 154.26832031 32.71148437 154.25929687 33.9453125 154.25 C35.33556641 154.23259766 35.33556641 154.23259766 36.75390625 154.21484375 C32.20644515 146.21932142 32.20644515 146.21932142 27.25 138.4765625 C26.83548584 137.85990723 26.42097168 137.24325195 25.99389648 136.60791016 C25.17907914 135.4050158 24.35204113 134.21029287 23.51196289 133.02490234 C21.8049733 130.49218734 20.74972892 128.76040254 20.7734375 125.6640625 C21.99119071 122.62210527 23.57169163 120.1572328 25.44140625 117.46484375 C26.15683594 116.42070312 26.87226563 115.3765625 27.609375 114.30078125 C28.31707031 113.28242188 29.02476562 112.2640625 29.75390625 111.21484375 C30.92567511 109.51000604 32.09300668 107.80210135 33.25390625 106.08984375 C33.73859375 105.38601562 34.22328125 104.6821875 34.72265625 103.95703125 C35.92369932 102.26541688 35.92369932 102.26541688 35.75390625 100.21484375 C31.16080878 99.32036109 27.3049909 99.00054089 22.75390625 100.21484375 C19.4854187 103.27660273 17.52636244 107.23118168 15.4609375 111.15234375 C14.89761719 112.16296875 14.33429688 113.17359375 13.75390625 114.21484375 C13.09390625 114.21484375 12.43390625 114.21484375 11.75390625 114.21484375 C10.31058612 112.09266139 8.98526745 109.98778641 7.69140625 107.77734375 C5.51445199 103.77093544 5.51445199 103.77093544 2.75390625 100.21484375 C0.56751172 100.14225429 -1.62109764 100.13110592 -3.80859375 100.15234375 C-5.00613281 100.16136719 -6.20367187 100.17039062 -7.4375 100.1796875 C-8.82775391 100.19708984 -8.82775391 100.19708984 -10.24609375 100.21484375 Z M0.75390625 135.21484375 C-1.24886652 138.19218005 -3.24842409 141.17158666 -5.24609375 144.15234375 C-5.8184375 145.00248047 -6.39078125 145.85261719 -6.98046875 146.72851562 C-7.521875 147.53740234 -8.06328125 148.34628906 -8.62109375 149.1796875 C-9.37519531 150.30298462 -9.37519531 150.30298462 -10.14453125 151.44897461 C-11.33430562 153.00937224 -11.33430562 153.00937224 -11.24609375 154.21484375 C-6.79773949 154.74943825 -2.67329494 154.99827959 1.75390625 154.21484375 C5.88698699 150.65621647 7.45625533 146.40544742 8.75390625 141.21484375 C6.11390625 139.23484375 3.47390625 137.25484375 0.75390625 135.21484375 Z " fill="#20201E" transform="translate(295.24609375,88.78515625)"/>
<path d="M0 0 C2.72242434 2.64464078 5.23181331 5.25340283 7.5625 8.25 C9.86164002 11.36570863 9.86164002 11.36570863 14 12 C13.67 9.03 13.34 6.06 13 3 C16.71242298 6.34796136 19.07235908 10.07676557 21.625 14.3125 C26.54985167 22.34729394 31.72654934 30.19080498 37 38 C36.505 38.99 36.505 38.99 36 40 C34.68 39.67 33.36 39.34 32 39 C31.34 40.98 30.68 42.96 30 45 C29.34 45 28.68 45 28 45 C28.66 43.02 29.32 41.04 30 39 C29.4225 38.731875 28.845 38.46375 28.25 38.1875 C25.96587952 36.98199197 24.04568469 35.56864477 22 34 C21.67201416 34.51498047 21.34402832 35.02996094 21.00610352 35.56054688 C19.52853581 37.87604031 18.04560373 40.18804896 16.5625 42.5 C15.7880957 43.71623047 15.7880957 43.71623047 14.99804688 44.95703125 C14.50498047 45.72402344 14.01191406 46.49101562 13.50390625 47.28125 C13.04830322 47.99345703 12.5927002 48.70566406 12.12329102 49.43945312 C11.75260498 49.95443359 11.38191895 50.46941406 11 51 C10.67 51 10.34 51 10 51 C9.67 48.69 9.34 46.38 9 44 C7.515 44.495 7.515 44.495 6 45 C6.309375 44.236875 6.61875 43.47375 6.9375 42.6875 C10.21864006 34.38814573 11.51133276 22.24932311 8.11230469 13.79101562 C6.34140733 10.68769942 4.28749868 8.12511419 1.96875 5.3984375 C0 3 0 3 0 0 Z " fill="#333331" transform="translate(274,191)"/>
<path d="M0 0 C1.32 0.33 2.64 0.66 4 1 C4 1.66 4 2.32 4 3 C3.350704 3.43641469 2.701408 3.87282938 2.03243637 4.32246876 C-0.19344639 5.81269714 -0.19344639 5.81269714 -0.50780869 8.21199322 C-0.51149586 9.07940042 -0.51518303 9.94680761 -0.51898193 10.84049988 C-0.53289474 11.83749405 -0.54680756 12.83448822 -0.56114197 13.86169434 C-0.5561116 14.95429565 -0.55108124 16.04689697 -0.54589844 17.17260742 C-0.55623611 18.32396683 -0.56657379 19.47532623 -0.57722473 20.66157532 C-0.60677902 24.4763471 -0.60815463 28.29059121 -0.609375 32.10546875 C-0.62434804 34.7467806 -0.64107332 37.38808305 -0.65948486 40.02937317 C-0.70007072 46.27664752 -0.72039153 52.52381743 -0.73345876 58.77120334 C-0.74932015 65.88368599 -0.78773202 72.99599068 -0.82805204 80.10837018 C-0.91048615 94.73884311 -0.96455627 109.36933877 -1 124 C-1.33 124 -1.66 124 -2 124 C-2.04671324 108.42303931 -2.08198553 92.84609131 -2.10362434 77.2690773 C-2.11393851 70.03645741 -2.12800152 62.80388103 -2.15087891 55.57128906 C-2.1708085 49.26762861 -2.18371542 42.96399968 -2.18817699 36.6603086 C-2.19078512 33.32229043 -2.19796533 29.98443379 -2.21146011 26.64643097 C-2.22592624 22.9208079 -2.22797997 19.19537309 -2.22705078 15.46972656 C-2.23424133 14.36201904 -2.24143188 13.25431152 -2.24884033 12.11303711 C-2.246091 11.09783997 -2.24334167 10.08264282 -2.24050903 9.03668213 C-2.24235262 8.15544804 -2.24419621 7.27421394 -2.24609566 6.36627579 C-1.98182569 3.82524912 -1.28069926 2.19118126 0 0 Z " fill="#5E5E5E" transform="translate(177,152)"/>
<path d="M0 0 C1.72853273 1.62685434 3.37120978 3.27589696 5 5 C5.52142578 5.53496094 6.04285156 6.06992188 6.58007812 6.62109375 C11.67374415 12.49111779 11.7433863 17.45280385 11.375 25 C11.34792969 26.06089844 11.32085937 27.12179688 11.29296875 28.21484375 C11.22277383 30.81205579 11.12451781 33.40492105 11 36 C10.67 36 10.34 36 10 36 C10.03222656 34.70707031 10.06445312 33.41414063 10.09765625 32.08203125 C10.11367463 20.99197412 9.11455818 14.04851052 1.93359375 5.43359375 C0 3 0 3 0 0 Z " fill="#DDDDDC" transform="translate(274,191)"/>
<path d="M0 0 C0.886875 0.804375 1.77375 1.60875 2.6875 2.4375 C5.43104882 4.74104571 7.41446711 5.51546853 11 6 C11.99 6.66 12.98 7.32 14 8 C13.67 8.66 13.34 9.32 13 10 C11.68 9.67 10.36 9.34 9 9 C8.34 10.98 7.68 12.96 7 15 C6.34 15 5.68 15 5 15 C5.66 13.02 6.32 11.04 7 9 C6.4225 8.7525 5.845 8.505 5.25 8.25 C2.6997003 6.83316683 0.98214299 5.12372463 -1 3 C-0.67 2.01 -0.34 1.02 0 0 Z " fill="#575755" transform="translate(297,221)"/>
<path d="M0 0 C0.33 0 0.66 0 1 0 C1 12.21 1 24.42 1 37 C2.65 37.33 4.3 37.66 6 38 C5.34 38.66 4.68 39.32 4 40 C4.33 40.66 4.66 41.32 5 42 C1.125 40.25 1.125 40.25 0 38 C-0.08691001 35.15570643 -0.11553802 32.33620824 -0.09765625 29.4921875 C-0.0962413 28.65156769 -0.09482635 27.81094788 -0.09336853 26.94485474 C-0.08776237 24.25486725 -0.07520886 21.56496241 -0.0625 18.875 C-0.05748579 17.05338662 -0.05292275 15.23177193 -0.04882812 13.41015625 C-0.03779094 8.94007223 -0.0205222 4.47005014 0 0 Z " fill="#484846" transform="translate(252,189)"/>
<path d="M0 0 C3.08089673 2.77280706 4.68775452 5.06326356 6 9 C5.01 9 4.02 9 3 9 C2.67 8.34 2.34 7.68 2 7 C1.01 7.33 0.02 7.66 -1 8 C-1.99 6.35 -2.98 4.7 -4 3 C-2.68 3 -1.36 3 0 3 C0 2.01 0 1.02 0 0 Z " fill="#4B4B4A" transform="translate(303,219)"/>
<path d="M0 0 C2.96404505 2.80804268 5.44499019 5.18315774 7 9 C3.63408134 7.55746343 1.48952921 5.66735273 -1 3 C-0.67 2.01 -0.34 1.02 0 0 Z " fill="#DEDEDE" transform="translate(297,221)"/>
<path d="M0 0 C1.32 0.33 2.64 0.66 4 1 C1.64722731 3.72426311 -0.62496331 4.8141763 -4 6 C-4 4.68 -4 3.36 -4 2 C-2.68 2.33 -1.36 2.66 0 3 C0 2.01 0 1.02 0 0 Z " fill="#60605F" transform="translate(389,284)"/>
<path d="M0 0 C0.66 0 1.32 0 2 0 C2 0.66 2 1.32 2 2 C2.66 2 3.32 2 4 2 C4 1.34 4 0.68 4 0 C5.32 0.33 6.64 0.66 8 1 C8 1.66 8 2.32 8 3 C5.36 3 2.72 3 0 3 C0 2.01 0 1.02 0 0 Z " fill="#191918" transform="translate(258,228)"/>
<path d="M0 0 C2.5 1.1875 2.5 1.1875 4.5 3.1875 C1.2 3.1875 -2.1 3.1875 -5.5 3.1875 C-5.17 2.1975 -4.84 1.2075 -4.5 0.1875 C-2.5 -0.8125 -2.5 -0.8125 0 0 Z " fill="#5C5C5A" transform="translate(381.5,138.8125)"/>
<path d="M0 0 C0.33 1.32 0.66 2.64 1 4 C2.65 4.33 4.3 4.66 6 5 C5.34 5.66 4.68 6.32 4 7 C4.33 7.66 4.66 8.32 5 9 C3.0625 8.4375 3.0625 8.4375 1 7 C0.25 3.375 0.25 3.375 0 0 Z " fill="#757573" transform="translate(252,222)"/>
<path d="M0 0 C0.66 0.33 1.32 0.66 2 1 C0.35 2.65 -1.3 4.3 -3 6 C-3.99 5.34 -4.98 4.68 -6 4 C-4.02 2.68 -2.04 1.36 0 0 Z " fill="#717171" transform="translate(205,132)"/>
<path d="M0 0 C1.32 0 2.64 0 4 0 C4.33 2.64 4.66 5.28 5 8 C2.74754119 5.31158141 1.11786042 3.35358125 0 0 Z " fill="#7E7E7D" transform="translate(326,233)"/>
<path d="" fill="#FFFFFF" transform="translate(0,0)"/>
<path d="" fill="#FFFFFF" transform="translate(0,0)"/>
<path d="" fill="#FFFFFF" transform="translate(0,0)"/>
<path d="" fill="#FFFFFF" transform="translate(0,0)"/>
<path d="" fill="#FFFFFF" transform="translate(0,0)"/>
<path d="" fill="#FFFFFF" transform="translate(0,0)"/>
<path d="" fill="#FFFFFF" transform="translate(0,0)"/>
</svg>
